<?xml version="1.0" standalone="no"?>
<!DOCTYPE svg PUBLIC "-//W3C//DTD SVG 20010904//EN"
 "http://www.w3.org/TR/2001/REC-SVG-20010904/DTD/svg10.dtd">
<svg version="1.0" xmlns="http://www.w3.org/2000/svg"
 width="5917.000000pt" height="5917.000000pt" viewBox="0 0 5917.000000 5917.000000"
 preserveAspectRatio="xMidYMid meet">
<metadata>
Created by potrace 1.16, written by Peter Selinger 2001-2019
</metadata>
<g transform="translate(0.000000,5917.000000) scale(0.100000,-0.100000)"
fill="#000000" stroke="none">
<path d="M18360 46260 c-124 -4 -371 -8 -550 -9 -273 -1 -329 -3 -347 -16 -12
-8 -43 -18 -70 -21 -26 -4 -52 -10 -58 -14 -11 -9 -210 -40 -253 -40 -15 0
-40 -11 -56 -25 -16 -13 -45 -27 -65 -30 -20 -4 -49 -9 -66 -12 -16 -3 -66
-23 -109 -44 -44 -21 -85 -39 -93 -39 -7 0 -21 -4 -31 -9 -9 -5 -53 -22 -97
-37 -44 -15 -82 -31 -85 -35 -3 -3 -27 -16 -53 -27 -27 -12 -62 -33 -79 -47
-16 -14 -39 -25 -50 -25 -42 0 -100 -24 -123 -52 -17 -20 -36 -30 -69 -34 -26
-4 -46 -10 -46 -13 0 -3 -14 -12 -30 -19 -17 -8 -28 -18 -24 -23 3 -5 -4 -9
-15 -9 -11 0 -22 -9 -26 -20 -4 -12 -15 -20 -28 -20 -13 0 -33 -7 -45 -16 -12
-8 -22 -11 -22 -6 0 5 -9 12 -20 15 -16 4 -20 0 -20 -22 0 -27 -26 -61 -47
-61 -5 0 -25 -14 -44 -31 -59 -53 -73 -64 -114 -89 -22 -13 -45 -32 -52 -41
-7 -9 -27 -22 -45 -30 -45 -18 -60 -33 -46 -47 8 -8 4 -13 -15 -17 -14 -4 -45
-28 -69 -54 -24 -26 -55 -52 -70 -58 -16 -7 -30 -23 -34 -38 -4 -16 -20 -33
-44 -45 -21 -11 -84 -70 -140 -132 -57 -62 -129 -141 -161 -176 -33 -34 -59
-69 -59 -77 0 -8 -8 -19 -19 -24 -10 -6 -24 -23 -30 -38 -6 -16 -21 -33 -34
-38 -12 -6 -28 -23 -37 -40 -8 -16 -17 -32 -20 -35 -3 -3 -6 -10 -7 -16 -1 -6
-16 -26 -33 -44 -18 -19 -46 -65 -62 -102 -17 -37 -34 -68 -39 -68 -4 0 -11
-9 -14 -21 -4 -11 -20 -35 -36 -54 -16 -18 -40 -58 -54 -89 -14 -31 -32 -59
-40 -62 -8 -3 -20 -25 -26 -48 -6 -22 -21 -52 -34 -66 -13 -14 -31 -51 -40
-82 -9 -32 -23 -62 -32 -66 -9 -5 -17 -29 -20 -56 -4 -29 -12 -51 -24 -59 -10
-8 -27 -46 -39 -93 -12 -43 -26 -80 -31 -82 -5 -2 -9 -18 -9 -36 0 -17 -6 -40
-13 -51 -7 -11 -19 -40 -26 -65 -7 -25 -17 -54 -21 -65 -5 -11 -12 -46 -15
-77 -4 -32 -10 -60 -15 -63 -5 -3 -14 -31 -21 -63 -7 -31 -16 -61 -20 -67 -4
-5 -12 -62 -18 -125 -18 -175 -19 -181 -40 -204 -16 -17 -20 -41 -24 -141 -4
-85 -29 -7638 -32 -9503 0 -80 3 -105 15 -112 12 -8 12 -10 -2 -15 -16 -6 -17
-293 -12 -4218 3 -2674 8 -4281 15 -4402 16 -294 28 -407 44 -419 18 -14 31
-81 40 -214 4 -56 11 -105 16 -108 5 -3 9 -13 9 -22 0 -9 12 -39 25 -67 17
-33 25 -67 25 -102 0 -28 5 -55 10 -58 6 -3 10 -20 10 -38 0 -17 18 -67 39
-112 27 -54 42 -101 47 -144 5 -46 11 -65 23 -68 10 -2 25 -33 40 -79 13 -42
30 -81 37 -88 6 -7 22 -37 35 -67 12 -30 28 -61 35 -69 7 -8 22 -40 34 -70 12
-30 27 -62 35 -70 7 -8 16 -25 19 -36 8 -25 50 -74 64 -74 5 0 15 -20 21 -45
6 -25 15 -45 19 -45 4 0 21 -26 37 -58 17 -31 32 -59 35 -62 3 -3 11 -17 17
-32 7 -16 19 -28 26 -28 16 0 48 -34 67 -72 7 -16 17 -28 22 -28 4 0 8 -5 8
-11 0 -6 12 -27 27 -47 46 -62 205 -246 225 -260 10 -7 25 -25 32 -40 18 -33
40 -56 141 -147 43 -38 96 -87 119 -108 22 -20 53 -43 68 -50 15 -6 28 -15 28
-19 0 -25 81 -93 198 -164 19 -12 37 -26 41 -32 3 -5 22 -17 41 -27 44 -22 78
-53 95 -85 9 -18 28 -29 60 -38 27 -7 59 -25 74 -41 14 -15 43 -33 64 -40 21
-7 52 -26 68 -42 17 -16 50 -35 75 -41 24 -7 44 -16 44 -20 0 -4 6 -8 13 -8 8
0 49 -17 93 -39 43 -21 93 -42 109 -45 17 -4 47 -18 67 -32 21 -13 45 -24 55
-24 20 0 125 -41 133 -52 3 -3 27 -12 53 -19 27 -6 54 -20 60 -30 14 -23 26
-24 41 -4 10 14 14 13 33 -5 12 -11 36 -20 53 -20 17 0 47 -8 68 -19 20 -10
53 -22 72 -26 19 -4 40 -11 45 -15 6 -4 46 -13 90 -19 101 -15 142 -28 149
-46 8 -21 46 -19 46 3 0 12 3 13 8 5 20 -32 112 -35 1327 -43 1757 -11 12566
-24 12778 -15 170 7 179 8 208 32 16 14 27 29 24 33 -3 5 0 10 5 12 6 2 18 41
27 88 23 120 53 221 74 249 13 16 19 40 19 72 0 42 3 49 20 49 14 0 20 7 20
23 0 39 12 66 31 72 11 4 19 16 19 28 0 12 9 28 20 35 11 7 20 21 20 33 0 11
12 37 28 57 37 51 112 144 128 159 7 7 15 21 18 31 4 9 21 24 39 32 20 9 33
24 35 38 2 12 15 28 30 36 15 8 41 27 58 42 55 51 115 99 135 108 10 5 19 13
19 17 0 5 20 20 45 35 25 14 45 29 45 33 0 4 15 15 33 26 17 10 46 33 62 51
22 23 42 32 75 36 29 4 64 18 99 42 29 20 59 36 67 36 8 0 14 4 14 9 0 4 27
14 60 20 33 7 60 15 60 19 0 17 84 41 198 56 71 10 139 25 160 36 21 10 69 24
107 30 43 6 439 14 1020 21 595 6 951 13 953 19 2 6 17 10 33 10 23 0 32 6 41
28 8 19 12 212 15 657 2 375 7 645 13 666 6 21 8 44 5 52 -4 8 1 17 9 20 23 9
20 37 -4 37 -22 0 -23 4 -20 140 1 41 6 79 11 85 5 5 9 18 9 30 0 12 5 26 12
33 9 9 6 18 -13 38 l-24 26 0 502 c0 386 3 506 12 518 7 8 10 18 6 21 -3 4 1
7 10 7 10 0 17 7 17 15 0 8 -4 15 -9 15 -19 0 -25 254 -25 1025 1 778 7 1025
25 1025 5 0 9 9 9 20 0 15 -7 20 -27 20 -27 0 -27 0 -7 15 19 12 22 28 28 132
7 129 33 326 46 358 5 11 20 74 34 139 14 66 30 122 35 125 10 6 51 125 51
148 0 7 5 13 10 13 6 0 10 6 9 13 -2 19 12 57 23 57 11 0 48 84 48 110 0 10
20 44 45 76 25 31 45 61 45 66 0 4 18 35 40 67 22 32 40 63 40 68 0 5 11 20
25 33 14 13 25 28 25 33 0 5 17 35 38 66 21 31 41 64 45 74 4 9 18 22 32 27
17 7 25 17 25 34 0 19 7 26 31 31 18 4 34 16 39 29 4 13 16 30 25 39 9 9 35
39 58 66 23 26 65 67 92 90 77 65 133 113 172 149 19 17 39 32 44 32 4 0 14 6
21 14 8 7 34 24 59 36 24 12 53 33 64 47 14 16 39 29 75 37 39 9 58 18 65 33
11 25 77 63 110 63 13 0 31 7 40 16 22 22 67 45 146 73 35 13 70 32 76 41 7
10 27 20 45 23 50 9 140 32 168 44 63 26 152 53 175 53 14 0 25 4 25 8 0 5 64
14 143 21 222 18 310 30 319 43 6 10 8 9 8 -3 0 -15 13 -16 113 -12 61 3 116
9 122 14 13 12 652 12 660 -1 3 -5 114 -9 272 -10 146 0 283 -3 304 -6 29 -5
39 -3 39 7 0 11 2 11 8 1 13 -20 76 -10 81 13 2 11 8 23 13 26 7 4 11 188 12
505 1 453 3 502 19 533 18 36 22 55 9 47 -14 -8 -17 299 -17 1679 0 1063 3
1355 13 1372 9 17 10 33 0 75 -11 46 -17 1538 -12 3013 1 479 1 1531 0 1630
-2 216 -1 1411 2 1465 7 138 -20 2585 -29 2588 -5 2 -9 12 -9 22 0 10 -4 22
-10 25 -5 3 -10 30 -11 58 0 59 -20 175 -42 257 -9 30 -23 104 -32 165 -9 60
-19 112 -24 115 -19 14 -51 95 -51 133 0 23 -7 51 -15 61 -8 11 -15 26 -15 34
0 7 -13 33 -30 57 -16 23 -34 63 -40 88 -11 53 -30 97 -40 97 -11 0 -50 95
-50 119 0 11 -13 34 -30 51 -16 16 -35 48 -41 70 -7 22 -16 40 -21 40 -4 0 -8
6 -8 13 0 7 -11 28 -25 47 -14 19 -25 46 -25 62 0 17 -7 31 -20 38 -11 6 -28
26 -38 44 -54 104 -108 192 -141 232 -5 6 -20 28 -34 50 -13 21 -80 104 -148
184 -182 213 -269 304 -419 440 -46 41 -92 84 -104 96 -12 11 -29 25 -38 30
-9 5 -45 36 -80 69 -94 88 -123 112 -145 119 -11 4 -35 20 -53 36 -18 16 -53
37 -76 46 -24 9 -41 20 -39 24 6 10 -18 30 -66 55 -108 57 -144 78 -147 86 -2
5 -20 11 -40 15 -21 4 -48 19 -62 34 -15 16 -48 34 -81 44 -31 8 -92 34 -136
56 -44 22 -86 40 -92 40 -6 0 -11 4 -11 9 0 5 -28 19 -62 31 -35 13 -76 29
-93 36 -16 7 -61 25 -99 39 -38 14 -74 30 -81 35 -6 5 -50 17 -99 26 -48 10
-94 23 -101 30 -16 17 -68 30 -195 49 -58 9 -109 21 -115 26 -5 5 -23 9 -40 9
-16 1 -48 8 -70 17 -33 14 -103 18 -385 25 -410 11 -17323 18 -17650 8z m8551
-4264 c37 -10 76 -26 87 -37 22 -20 86 -26 97 -9 10 16 312 13 318 -2 6 -19
637 -19 660 0 18 16 247 18 256 3 4 -6 76 -17 161 -26 118 -13 161 -21 182
-36 17 -12 29 -15 33 -8 5 6 12 4 20 -7 9 -14 35 -19 113 -24 67 -5 110 -13
126 -24 14 -9 40 -16 59 -16 44 0 126 -25 196 -59 31 -16 77 -37 103 -47 27
-11 48 -22 48 -25 0 -4 29 -15 64 -25 49 -14 66 -24 70 -40 5 -20 43 -44 71
-44 13 0 31 -16 124 -112 14 -16 30 -28 34 -28 4 0 13 -4 20 -10 7 -5 37 -29
67 -51 63 -48 101 -83 218 -201 137 -137 142 -143 142 -154 0 -6 9 -19 20 -29
11 -10 17 -22 14 -26 -3 -5 -1 -9 4 -9 6 0 12 -10 16 -23 3 -13 37 -57 76 -97
38 -41 70 -80 70 -85 0 -6 8 -20 18 -31 23 -24 58 -99 67 -142 4 -19 19 -41
35 -54 16 -12 32 -35 36 -52 3 -17 10 -33 13 -36 4 -3 18 -23 31 -45 13 -22
30 -46 37 -53 7 -7 13 -21 13 -31 0 -9 14 -39 31 -66 17 -27 37 -73 45 -102 7
-29 27 -76 43 -105 16 -29 35 -80 42 -113 7 -33 15 -62 19 -65 18 -16 41 -66
51 -108 5 -27 19 -59 29 -70 16 -17 17 -21 5 -26 -20 -7 -19 -22 5 -46 15 -15
20 -33 20 -69 0 -39 5 -53 29 -78 19 -20 31 -45 35 -76 4 -25 14 -51 23 -59
29 -23 52 -91 59 -173 4 -44 10 -84 14 -90 4 -5 10 -30 14 -55 4 -25 13 -55
21 -66 8 -12 17 -57 20 -100 7 -87 7 -88 58 -194 27 -57 40 -107 57 -210 12
-74 26 -139 30 -145 4 -5 17 -53 29 -105 12 -52 26 -103 32 -112 12 -23 12
-78 -1 -78 -14 0 -13 -33 2 -48 9 -9 8 -12 -5 -12 -17 0 -17 -22 3 -100 5 -19
14 -71 20 -115 6 -44 18 -102 27 -130 9 -27 17 -84 19 -125 1 -41 6 -100 12
-130 6 -30 15 -152 22 -270 14 -274 25 -368 47 -392 15 -16 18 -55 24 -276 10
-340 19 -406 62 -445 18 -16 19 -26 14 -99 -4 -45 -11 -86 -17 -92 -15 -15
-12 -36 5 -36 18 0 20 -36 5 -76 -6 -15 -33 -50 -60 -78 -64 -67 -100 -116
-100 -138 0 -10 -4 -18 -9 -18 -5 0 -15 -24 -21 -52 -7 -29 -28 -84 -46 -123
-18 -38 -38 -91 -45 -117 -6 -27 -15 -48 -20 -48 -5 0 -9 -11 -9 -25 0 -14 -8
-42 -19 -63 -10 -20 -21 -64 -25 -97 -4 -39 -14 -67 -27 -81 -14 -15 -24 -46
-31 -100 -12 -91 -28 -129 -70 -164 -21 -19 -31 -37 -35 -69 -3 -23 -12 -45
-19 -48 -8 -3 -14 -15 -14 -28 0 -12 -6 -28 -14 -34 -8 -7 -19 -42 -26 -78
-12 -73 -24 -102 -50 -120 -10 -7 -25 -36 -35 -65 -9 -29 -27 -65 -40 -80 -14
-17 -26 -47 -30 -76 -3 -26 -14 -64 -25 -84 -28 -51 -27 -141 0 -168 23 -23
26 -46 6 -57 -10 -6 -16 -37 -21 -108 -6 -102 -29 -236 -46 -267 -11 -21 -12
-521 -2 -532 11 -11 31 -95 39 -163 9 -79 -1 -137 -23 -129 -12 5 -13 2 -8
-11 5 -10 11 -49 15 -88 4 -38 13 -83 20 -100 7 -16 16 -39 21 -50 4 -11 13
-65 20 -120 6 -55 17 -112 25 -127 19 -36 18 -161 -1 -224 -8 -27 -15 -69 -15
-94 0 -58 -19 -173 -29 -180 -5 -3 -12 -16 -16 -30 -4 -13 -18 -33 -31 -43
-14 -11 -24 -29 -24 -45 -1 -15 -11 -47 -23 -72 -17 -35 -27 -44 -44 -43 -14
2 -23 -3 -23 -11 0 -16 -53 -65 -107 -99 -23 -14 -52 -37 -67 -50 -14 -14 -40
-27 -56 -31 -18 -3 -30 -12 -30 -21 0 -9 -9 -15 -26 -15 -14 0 -23 -4 -20 -9
7 -11 -38 -31 -70 -31 -13 0 -32 -4 -42 -9 -9 -5 -37 -14 -61 -21 -24 -6 -63
-24 -85 -38 -37 -23 -55 -27 -176 -34 -272 -17 -318 -23 -344 -47 -15 -14 -44
-25 -82 -31 -86 -13 -128 -22 -134 -30 -3 -4 -48 -20 -100 -35 -52 -15 -97
-31 -100 -35 -3 -4 -26 -17 -52 -28 -27 -11 -48 -27 -48 -34 0 -7 -18 -33 -41
-58 -77 -86 -139 -181 -139 -214 0 -8 -9 -20 -20 -26 -13 -7 -20 -21 -20 -40
0 -16 -4 -31 -9 -34 -5 -3 -12 -17 -15 -30 -8 -32 -38 -96 -84 -178 -72 -129
-97 -168 -110 -168 -7 0 -17 -12 -23 -28 -6 -19 -24 -34 -60 -51 -39 -17 -50
-27 -46 -41 4 -14 -3 -20 -27 -24 -44 -8 -112 -54 -127 -85 -8 -14 -44 -56
-81 -93 -38 -36 -68 -73 -68 -82 0 -8 -8 -21 -18 -28 -41 -29 -54 -190 -30
-379 10 -85 10 -103 -5 -149 -10 -29 -20 -78 -23 -109 -9 -80 -39 -140 -81
-157 -51 -22 -82 -9 -104 42 -10 25 -18 47 -18 49 0 3 -6 12 -13 19 -7 7 -29
39 -48 71 -76 126 -179 186 -290 170 -55 -8 -80 -21 -80 -40 0 -8 -18 -34 -40
-57 -22 -24 -44 -56 -49 -73 -6 -16 -12 -91 -15 -165 -5 -155 -14 -202 -47
-265 l-24 -45 28 -49 c15 -27 27 -60 27 -74 0 -14 5 -29 10 -32 13 -8 13 -92
-1 -100 -6 -4 -8 -13 -5 -20 3 -8 -7 -18 -24 -25 -16 -7 -32 -20 -35 -29 -10
-33 -98 -61 -112 -37 -4 8 -19 16 -32 18 -37 5 -61 59 -72 160 -10 103 -25
142 -68 183 -25 23 -41 29 -70 29 -22 -1 -45 -7 -53 -13 -7 -6 -28 -23 -47
-36 -39 -28 -104 -120 -121 -170 -6 -19 -15 -35 -19 -35 -5 0 -14 -28 -21 -62
-17 -82 -51 -152 -100 -208 -22 -24 -40 -48 -40 -52 0 -12 -59 -9 -83 4 -12 6
-35 24 -50 40 -16 15 -34 28 -42 28 -16 0 -24 30 -35 128 -9 87 -38 125 -105
143 -22 6 -48 15 -57 20 -33 17 -95 10 -146 -17 -28 -14 -97 -71 -154 -127
-148 -146 -151 -148 -223 -145 l-60 3 -3 115 c-1 63 -6 124 -11 135 -6 11 -12
146 -15 300 -5 288 -14 371 -44 382 -10 4 -19 9 -22 13 -3 3 -26 19 -52 35
-27 17 -48 33 -48 38 0 4 -18 7 -40 7 -58 0 -122 -49 -151 -115 -19 -44 -21
-60 -15 -150 12 -193 20 -217 54 -183 9 9 12 3 12 -28 0 -27 -6 -45 -19 -56
-11 -9 -25 -36 -31 -60 -7 -24 -25 -64 -41 -91 -16 -26 -29 -51 -29 -55 0 -4
-22 -32 -50 -62 -45 -50 -52 -54 -90 -53 -29 1 -40 -2 -40 -13 0 -7 -6 -14
-13 -14 -28 0 -98 42 -106 63 -5 12 -22 32 -39 44 -23 17 -33 36 -43 79 -9 38
-18 58 -30 61 -13 4 -19 20 -24 66 -10 97 -32 163 -61 186 -34 27 -60 26 -99
-1 -45 -30 -72 -74 -86 -136 -6 -29 -17 -56 -24 -58 -21 -8 -51 12 -74 49 -21
34 -30 85 -52 302 -7 74 -17 121 -30 143 -10 18 -19 40 -19 48 0 8 -4 14 -10
14 -5 0 -10 10 -10 23 0 83 -61 184 -127 212 -23 10 -32 21 -35 41 -2 21 -10
30 -32 35 -16 5 -37 17 -47 28 -19 20 -62 35 -131 46 -21 3 -43 12 -50 19 -7
7 -26 21 -41 31 -22 14 -30 16 -36 6 -6 -10 -10 -9 -14 3 -4 10 -19 16 -40 16
-43 0 -185 35 -223 55 -16 8 -38 15 -49 15 -12 0 -26 5 -32 11 -14 14 -90 7
-158 -13 -27 -8 -79 -23 -115 -33 -36 -9 -74 -21 -85 -25 -78 -31 -86 -33 -98
-21 -17 17 -56 13 -84 -9 -17 -13 -41 -20 -68 -20 -36 0 -50 6 -79 35 -23 22
-46 35 -63 35 -48 0 -233 211 -233 265 0 9 -7 23 -15 31 -8 8 -20 34 -26 57
-6 23 -16 48 -21 55 -7 8 -7 17 2 27 9 11 11 44 7 117 -4 86 -1 115 16 173 12
39 25 72 29 73 11 5 10 622 -1 622 -4 0 -11 36 -14 81 -4 44 -10 85 -14 92 -4
7 -6 20 -5 29 2 9 -6 22 -17 28 -15 7 -21 21 -21 44 0 18 -9 66 -20 107 -11
41 -23 109 -27 152 -3 43 -10 80 -15 83 -4 3 -8 28 -8 56 0 49 -48 258 -62
268 -4 3 -10 43 -14 89 -7 79 -8 82 -30 77 -20 -5 -23 -1 -29 34 -4 22 -18 54
-31 72 -33 45 -53 91 -63 141 -4 23 -20 60 -34 81 -15 21 -27 42 -27 45 -1 48
-28 137 -68 221 -27 58 -58 128 -68 155 -10 28 -23 55 -29 61 -5 6 -21 35 -35
65 -14 30 -33 63 -42 73 -20 22 -22 28 -38 119 -7 37 -16 67 -20 67 -4 0 -12
18 -19 40 -6 21 -22 52 -35 67 -13 15 -26 46 -29 68 -4 22 -13 45 -22 51 -8 6
-15 25 -15 43 0 17 -4 31 -10 31 -5 0 -10 8 -10 17 0 33 -42 134 -66 158 -13
13 -24 33 -24 44 0 11 -11 37 -25 57 -29 43 -40 80 -57 189 -10 66 -18 89 -49
131 -21 29 -35 54 -32 58 4 3 1 6 -4 6 -6 0 -13 26 -16 58 -7 83 -34 180 -62
216 -17 23 -26 54 -35 116 -10 81 -23 122 -56 182 -7 14 -14 39 -14 54 0 33
-28 112 -47 136 -10 11 -11 18 -4 23 17 10 14 105 -4 111 -12 5 -15 29 -15
126 0 105 -3 123 -21 149 -11 16 -23 45 -26 64 -3 20 -14 40 -23 45 -10 5 -21
22 -24 37 -4 16 -19 46 -33 68 -24 36 -27 52 -34 190 -4 82 -13 182 -18 220
-6 39 -12 168 -15 288 -3 177 -7 221 -19 235 -36 40 -29 183 14 271 19 40 54
148 79 241 5 19 11 65 13 102 3 47 11 75 26 97 17 23 24 53 30 128 10 109 28
193 43 193 5 0 6 5 3 10 -3 6 -2 10 4 10 15 0 30 65 55 250 6 41 41 131 58
150 18 19 22 45 32 181 11 154 12 160 41 196 24 31 64 101 70 123 0 3 5 14 11
25 6 11 19 47 29 80 10 33 21 65 26 70 4 6 10 42 14 82 4 39 13 82 21 95 7 13
25 48 40 78 15 30 40 67 54 82 16 16 35 53 46 92 14 49 24 66 40 70 12 3 28
22 37 43 19 43 51 97 78 131 10 13 21 39 25 58 3 19 11 34 17 34 20 0 47 33
47 57 0 24 4 27 52 37 30 7 158 130 158 153 0 7 20 22 45 33 25 11 45 26 45
35 0 9 9 15 23 15 17 0 28 10 40 35 9 19 20 35 24 35 5 0 31 20 58 45 28 25
58 47 67 50 9 4 20 15 23 26 4 10 22 26 40 33 22 9 35 22 37 37 2 14 12 25 28
29 58 16 180 118 180 152 0 7 12 19 28 25 26 12 64 48 274 263 94 96 105 106
168 150 19 13 38 29 43 36 4 7 24 23 45 35 20 13 43 29 50 36 7 7 22 13 32 13
10 0 28 13 40 30 12 16 36 37 55 46 19 8 41 27 50 40 8 13 31 30 50 38 19 8
35 21 35 28 0 8 15 19 34 26 18 7 46 24 62 38 16 15 50 45 75 68 79 71 113 98
137 109 12 6 22 14 22 18 0 5 24 21 53 35 28 15 54 29 57 33 3 3 24 19 48 34
23 15 42 32 42 37 0 5 20 15 45 21 25 6 43 14 40 18 -2 4 9 15 26 25 16 9 29
21 29 25 0 5 17 11 38 15 22 3 56 19 77 36 20 16 53 32 73 36 19 4 62 22 94
40 33 19 64 34 69 34 5 0 9 4 9 10 0 5 38 21 85 35 47 15 85 29 85 33 0 12 52
39 90 47 41 8 116 40 124 54 4 5 21 13 39 16 17 4 34 11 37 16 3 4 48 13 100
19 130 16 167 26 173 50 4 17 14 20 64 20 58 0 123 26 123 50 0 16 41 28 127
39 76 9 79 11 124 59 25 27 55 53 67 56 12 4 36 19 53 34 31 25 36 26 223 33
216 9 281 16 299 33 6 6 23 19 38 28 21 14 28 14 50 2 32 -18 104 -18 122 0 9
10 18 11 24 5 7 -7 25 -7 54 0 24 6 79 13 121 16 43 4 81 11 84 17 7 12 54 6
145 -16z m2517 -12255 c2 -23 -4 -42 -22 -66 -14 -19 -26 -44 -26 -57 0 -45
-24 -178 -32 -178 -4 0 -8 -65 -8 -144 0 -92 -5 -166 -14 -203 -17 -67 -21
-229 -18 -678 3 -299 -1 -367 -20 -391 -15 -20 -31 -186 -24 -261 3 -39 12
-91 20 -115 11 -30 19 -134 27 -348 18 -441 20 -417 -22 -481 -19 -30 -40 -66
-47 -81 -6 -16 -16 -28 -21 -28 -5 0 -12 -16 -15 -35 -4 -19 -13 -38 -21 -43
-27 -14 -65 -76 -65 -103 0 -17 -11 -38 -29 -55 -17 -15 -32 -38 -35 -50 -4
-13 -15 -26 -26 -29 -11 -3 -20 -10 -20 -15 0 -5 -11 -21 -24 -35 -13 -14 -31
-40 -39 -58 -9 -18 -29 -42 -46 -55 -17 -12 -31 -31 -31 -42 0 -12 -8 -20 -22
-22 -15 -2 -28 -15 -37 -35 -8 -18 -24 -36 -35 -39 -12 -4 -46 -32 -76 -63
-31 -31 -107 -103 -170 -161 -62 -58 -123 -115 -134 -126 -12 -12 -39 -33 -61
-47 -23 -13 -73 -57 -113 -96 -41 -40 -81 -71 -92 -71 -11 0 -20 -6 -20 -14 0
-25 -49 -74 -80 -81 -19 -4 -30 -13 -30 -24 0 -10 -13 -22 -32 -29 -20 -7 -53
-37 -83 -73 -27 -34 -56 -67 -62 -75 -7 -7 -13 -21 -13 -32 0 -14 -9 -21 -33
-26 -19 -3 -44 -17 -56 -30 -12 -13 -40 -31 -62 -41 -34 -16 -44 -30 -40 -57
0 -5 -7 -8 -17 -8 -10 0 -25 -9 -35 -20 -9 -11 -29 -20 -44 -20 -35 0 -48 -9
-57 -38 -4 -12 -25 -31 -47 -43 -22 -11 -42 -26 -46 -34 -3 -8 -24 -23 -47
-34 -22 -10 -78 -54 -122 -97 -71 -69 -91 -82 -153 -103 -39 -13 -71 -27 -71
-31 0 -4 -19 -16 -42 -26 -24 -10 -53 -29 -65 -42 -17 -19 -41 -26 -125 -38
-57 -8 -112 -19 -123 -24 -65 -28 -129 -42 -147 -31 -10 6 -27 11 -38 11 -11
0 -23 6 -26 14 -3 7 -23 16 -45 20 -23 4 -48 16 -60 30 -13 14 -41 28 -77 36
-115 25 -129 30 -147 50 -9 10 -46 29 -80 40 -35 12 -66 27 -69 35 -2 7 -31
21 -63 30 -32 10 -66 21 -75 26 -10 5 -24 9 -31 9 -7 0 -30 15 -50 34 -25 23
-55 38 -90 46 -106 23 -139 33 -144 46 -5 14 -102 38 -198 49 -33 4 -62 10
-65 14 -11 14 -167 61 -202 61 -21 0 -38 4 -38 9 0 9 -38 24 -57 22 -6 -1 -9
7 -6 17 2 10 -2 24 -11 31 -12 10 -17 9 -27 -8 -13 -19 -13 -19 -27 0 -7 10
-33 24 -58 30 -25 6 -51 21 -59 32 -14 20 -53 17 -40 -3 10 -16 -12 -12 -29 5
-14 14 -91 34 -189 50 -22 4 -47 16 -59 31 -12 13 -38 29 -57 34 -26 7 -44 22
-66 55 -18 27 -38 45 -50 45 -11 0 -29 7 -39 15 -11 8 -32 15 -48 15 -20 0
-28 5 -28 18 0 11 -13 23 -35 30 -39 15 -155 136 -155 163 0 10 -12 24 -27 31
-15 7 -33 24 -40 38 -15 30 -41 67 -65 92 -10 10 -18 24 -18 31 0 12 -43 69
-90 119 -53 56 -85 101 -97 133 -6 18 -21 43 -32 54 -19 19 -21 33 -21 131 0
106 1 110 19 100 11 -5 22 -10 24 -10 2 0 7 35 11 78 8 102 23 152 51 179 33
31 37 84 33 393 -4 266 -8 306 -49 405 -4 11 -13 74 -19 140 -12 131 -27 215
-40 215 -21 0 -32 78 -28 205 3 114 6 137 23 155 15 17 20 40 23 116 5 108 10
114 73 95 39 -12 89 -55 89 -78 0 -7 9 -22 20 -33 22 -22 34 -110 45 -339 4
-74 11 -142 15 -150 4 -9 13 -50 19 -91 9 -60 16 -79 36 -95 18 -15 25 -31 25
-55 0 -19 7 -48 15 -63 10 -20 12 -35 5 -53 -17 -44 -11 -135 11 -184 12 -25
23 -63 25 -85 6 -60 34 -152 66 -221 15 -34 28 -70 28 -81 0 -12 7 -23 15 -27
10 -4 15 -20 15 -51 0 -25 4 -45 9 -45 4 0 16 -19 25 -42 29 -76 142 -178 196
-178 32 0 88 30 126 67 62 58 72 64 82 46 6 -10 16 -14 27 -10 10 4 28 -1 43
-12 15 -10 37 -22 50 -25 12 -4 22 -12 22 -17 0 -5 39 -9 86 -9 95 0 113 9
200 96 60 61 69 90 56 177 -24 153 -33 269 -22 282 33 40 97 21 119 -34 8 -18
18 -28 27 -24 18 7 52 -51 60 -104 5 -33 11 -43 24 -43 14 0 21 -13 31 -54 15
-69 48 -106 94 -106 43 0 65 -9 65 -26 0 -19 29 -18 36 1 4 8 16 15 28 15 20
0 116 80 116 97 0 4 11 20 25 35 14 15 25 30 25 34 0 17 72 92 99 104 26 11
35 10 57 -5 31 -20 74 -108 74 -151 0 -17 9 -41 20 -54 11 -13 20 -26 20 -30
0 -8 67 -79 111 -118 23 -20 28 -21 55 -8 16 8 66 17 111 21 46 3 95 10 110
14 29 9 103 71 103 87 0 5 7 23 16 39 10 19 15 50 13 85 -6 120 -2 139 39 179
54 56 71 58 123 16 24 -19 52 -35 61 -35 9 0 20 -9 23 -20 3 -11 17 -23 29
-26 13 -3 37 -25 54 -50 20 -27 39 -44 52 -44 15 0 20 -7 20 -29 0 -39 17 -81
40 -103 15 -14 36 -18 94 -18 41 0 77 4 80 9 3 4 19 11 35 14 34 7 91 54 108
89 33 66 42 100 46 175 5 76 8 86 42 130 42 55 125 184 125 196 0 10 97 9 118
-2 23 -12 248 -32 270 -24 21 8 82 64 82 76 0 5 6 15 14 22 8 8 21 48 30 89
21 94 48 126 106 126 58 0 77 -23 85 -107 10 -98 28 -157 88 -281 23 -47 54
-72 92 -72 20 0 44 4 54 9 35 19 136 114 224 210 l39 42 -7 227 c-4 125 -9
235 -11 245 -6 19 -34 24 -34 5 0 -7 -5 -5 -11 5 -6 9 -13 48 -16 85 -6 88 11
139 57 169 19 12 45 32 57 44 19 19 28 21 76 16 71 -9 117 6 117 39 0 17 4 22
15 18 21 -8 42 11 64 60 10 23 25 49 34 58 12 12 21 57 33 175 14 143 18 160
39 178 28 24 42 90 52 243 3 56 10 105 15 108 4 3 8 16 8 28 0 13 7 43 16 67
16 42 32 104 38 141 1 10 12 28 23 40 11 13 24 34 28 48 4 14 11 27 15 30 14
10 40 128 40 181 0 48 4 58 35 92 19 21 35 48 35 60 0 42 26 59 70 47 19 -5
26 -14 28 -39z"/>
<path d="M29388 35908 c-4 -10 -63 -15 -229 -19 -199 -6 -374 -25 -429 -46 -8
-4 -33 -12 -55 -19 -22 -7 -58 -19 -80 -28 -22 -8 -55 -15 -73 -16 -18 0 -40
-4 -50 -10 -9 -5 -38 -18 -64 -29 -27 -11 -48 -26 -48 -34 0 -8 -12 -17 -28
-20 -15 -3 -49 -26 -76 -51 -26 -25 -55 -46 -63 -46 -14 0 -78 -48 -128 -95
-54 -51 -110 -95 -122 -95 -7 0 -21 -16 -30 -35 -9 -20 -24 -35 -34 -35 -9 0
-28 -15 -43 -34 -14 -19 -36 -38 -48 -42 -13 -4 -43 -27 -68 -52 -25 -24 -64
-53 -87 -63 -22 -9 -44 -26 -47 -37 -6 -18 -45 -42 -69 -42 -7 0 -24 -21 -37
-46 -14 -25 -41 -57 -60 -72 -19 -14 -40 -34 -47 -43 -7 -9 -26 -22 -43 -29
-16 -7 -30 -15 -30 -19 0 -3 -20 -17 -44 -29 -35 -19 -47 -33 -61 -70 -10 -26
-26 -56 -35 -67 -31 -36 -80 -139 -80 -170 0 -17 -13 -57 -30 -88 -25 -48 -30
-70 -30 -126 0 -37 4 -71 9 -76 5 -6 13 -63 19 -128 6 -65 14 -123 20 -130 5
-7 12 -38 15 -71 3 -32 12 -65 20 -75 9 -9 18 -38 22 -66 10 -77 23 -109 55
-140 16 -16 33 -43 36 -62 3 -18 10 -33 15 -33 5 0 9 -7 9 -15 0 -8 16 -21 35
-29 19 -8 35 -20 35 -25 0 -16 72 -61 97 -61 12 0 35 -13 51 -30 18 -18 41
-30 56 -30 14 0 26 -4 26 -8 0 -4 20 -14 44 -21 48 -14 157 -79 192 -115 43
-43 82 -74 102 -80 11 -4 25 -20 32 -36 10 -23 23 -32 66 -45 29 -8 57 -22 62
-30 4 -9 33 -32 62 -51 67 -44 122 -53 336 -57 149 -2 153 -1 173 22 19 22 31
24 177 32 148 9 214 24 214 48 0 5 32 17 71 26 48 12 78 26 92 42 12 13 46 31
77 40 30 8 70 29 88 44 18 16 39 29 47 29 8 0 15 4 15 8 0 5 19 18 42 28 23
10 61 35 84 54 77 65 87 72 118 85 41 18 144 97 216 166 9 8 36 25 61 37 48
24 119 87 147 130 29 46 55 73 99 103 27 19 44 39 48 58 3 16 13 35 21 42 8 6
28 32 44 56 24 35 32 62 41 136 15 115 14 557 -2 782 -6 94 -15 267 -19 385
-9 263 -33 384 -89 434 -12 11 -21 23 -21 28 0 5 -13 20 -29 33 -15 14 -34 38
-41 55 -7 18 -22 33 -36 36 -13 3 -24 9 -24 14 0 4 -62 10 -138 13 -76 3 -151
11 -166 18 -21 10 -29 10 -35 1 -6 -10 -23 -7 -72 10 -35 13 -65 26 -67 31 -6
13 -180 8 -184 -5z"/>
<path d="M24755 34463 c-38 -2 -83 -10 -100 -17 -66 -31 -169 -45 -278 -39
-102 6 -119 3 -192 -27 -11 -5 -43 -14 -72 -19 -29 -6 -76 -22 -105 -36 -37
-18 -80 -28 -154 -35 -56 -5 -124 -15 -151 -21 -46 -12 -112 -44 -124 -61 -3
-5 -23 -11 -45 -15 -21 -3 -41 -9 -44 -12 -12 -14 -102 -51 -111 -45 -11 7
-97 -14 -114 -27 -6 -4 -68 -13 -139 -20 -127 -13 -128 -13 -153 -46 -19 -24
-36 -35 -65 -39 -22 -4 -45 -12 -51 -18 -7 -6 -31 -24 -53 -39 -64 -43 -234
-227 -258 -277 -20 -43 -21 -61 -21 -370 0 -352 6 -400 53 -451 13 -14 32 -50
42 -79 10 -29 25 -57 34 -62 9 -5 16 -22 16 -39 0 -16 7 -46 15 -66 8 -19 15
-46 15 -58 0 -23 16 -67 51 -141 10 -22 19 -47 19 -55 0 -8 9 -25 19 -36 18
-19 21 -42 27 -222 6 -175 9 -204 26 -223 10 -11 18 -27 18 -34 0 -7 7 -17 16
-22 25 -14 31 -104 10 -136 -19 -30 -13 -71 19 -136 39 -80 46 -87 107 -106
32 -9 58 -21 58 -25 0 -36 93 -55 102 -21 5 19 64 32 147 32 72 0 160 22 188
46 30 26 81 44 127 44 16 0 62 16 102 35 l72 35 194 -1 c250 0 321 -8 349 -38
l21 -22 22 20 c13 12 48 26 82 32 32 6 68 15 79 19 11 5 50 11 86 14 81 8 159
33 159 52 0 8 8 14 18 14 74 0 298 77 347 120 11 10 41 37 68 60 26 24 50 54
53 67 4 13 19 32 35 44 16 11 29 25 29 31 0 22 64 143 92 176 15 18 28 42 28
52 0 11 6 20 14 20 21 0 30 20 17 33 -9 9 -6 16 10 28 15 11 23 29 24 53 1 21
7 42 14 49 6 6 11 21 11 34 0 13 5 23 11 23 5 0 8 4 4 9 -3 5 4 12 15 16 18 6
40 57 40 97 0 9 5 20 10 23 6 3 10 19 10 34 0 36 34 138 65 197 14 26 25 56
25 66 0 11 13 32 28 46 21 20 32 44 41 89 10 54 16 64 36 69 16 4 25 13 25 25
0 20 19 59 33 70 5 3 19 46 32 95 13 49 31 103 39 119 48 95 61 263 26 328
-11 20 -20 44 -20 52 0 8 -4 15 -10 15 -5 0 -10 8 -10 19 0 25 -39 111 -50
111 -5 0 -12 12 -16 28 -11 52 -29 87 -59 118 -62 64 -85 91 -85 101 0 11
-126 156 -204 236 l-47 47 -337 -2 c-185 -1 -368 -3 -407 -5z"/>
<path d="M26422 33373 c-56 -24 -121 -78 -184 -152 -11 -12 -26 -68 -39 -138
-11 -65 -25 -126 -29 -135 -5 -9 -12 -46 -16 -82 -5 -51 -14 -76 -43 -118 -37
-54 -76 -147 -107 -251 -10 -33 -22 -64 -29 -70 -6 -7 -16 -30 -23 -53 -7 -23
-25 -58 -42 -79 -16 -21 -30 -48 -30 -60 0 -13 -7 -45 -16 -73 -12 -37 -23
-52 -39 -56 -19 -5 -23 -15 -29 -63 -7 -64 -13 -76 -38 -86 -12 -4 -18 -17
-18 -35 0 -30 -27 -130 -39 -147 -4 -5 -18 -64 -31 -130 -12 -66 -28 -129 -35
-140 -12 -20 -26 -90 -46 -245 -6 -47 -14 -89 -19 -95 -5 -5 -16 -62 -26 -125
-16 -102 -16 -134 -6 -284 10 -137 16 -177 34 -212 35 -72 67 -93 156 -105 95
-12 108 -16 129 -37 14 -15 41 -17 200 -17 118 0 186 4 191 11 4 5 22 16 41
24 33 13 164 130 146 130 -6 0 5 9 23 20 17 11 32 24 32 29 0 5 6 16 14 23 18
18 86 148 86 164 0 6 15 30 33 52 19 22 40 55 47 73 57 145 72 160 120 119 13
-11 46 -27 73 -35 107 -32 573 -10 634 30 36 24 107 98 122 128 8 15 18 27 23
27 4 0 8 8 8 19 0 10 7 32 15 47 8 16 15 55 15 86 0 31 5 60 10 63 6 4 8 10 5
15 -3 5 2 13 12 19 16 8 19 34 25 228 3 120 9 253 12 297 5 66 2 86 -16 130
-12 28 -26 52 -30 54 -4 2 -12 20 -18 40 -5 20 -23 52 -39 70 -17 18 -42 48
-57 67 -14 19 -41 40 -59 46 -18 7 -31 17 -29 24 5 12 -37 54 -95 94 -89 63
-212 209 -264 314 -11 20 -23 37 -27 37 -12 0 -58 75 -66 107 -4 15 -10 30
-13 33 -3 3 -12 23 -20 45 -7 22 -26 67 -41 100 -15 33 -33 81 -40 107 -10 37
-18 49 -40 57 -18 6 -30 18 -32 32 -2 17 -19 32 -63 54 -56 28 -68 30 -185 32
-116 3 -130 1 -188 -24z"/>
<path d="M38260 28024 c-14 -3 -34 -9 -45 -14 -11 -4 -45 -11 -75 -14 -123
-13 -280 -70 -345 -125 -11 -9 -31 -22 -45 -28 -55 -23 -223 -193 -259 -260
-6 -13 -18 -23 -26 -23 -18 0 -45 -50 -45 -84 0 -24 -18 -50 -40 -58 -10 -3
-50 -147 -50 -183 0 -11 -5 -26 -11 -32 -9 -9 -13 -534 -15 -2050 -7 -3879
-11 -4686 -24 -4719 l-11 -31 -1693 -5 c-1558 -4 -1695 -6 -1726 -21 -18 -10
-74 -22 -124 -27 -111 -13 -150 -25 -181 -56 -13 -13 -31 -24 -39 -24 -23 0
-63 -55 -81 -112 -9 -29 -20 -61 -26 -70 -5 -10 -9 -45 -9 -77 0 -48 5 -68 25
-97 14 -21 31 -57 37 -81 5 -24 14 -43 19 -43 5 0 9 -7 9 -15 0 -8 9 -20 20
-27 11 -7 20 -17 20 -22 0 -5 11 -24 25 -42 14 -18 25 -36 25 -40 0 -4 11 -19
25 -33 93 -97 141 -151 164 -186 25 -39 128 -160 186 -220 17 -17 55 -59 85
-94 30 -35 71 -81 90 -101 47 -49 174 -190 180 -200 15 -25 258 -311 288 -341
83 -80 325 -357 397 -454 16 -22 59 -70 95 -107 88 -89 212 -227 232 -258 9
-14 46 -55 81 -93 36 -37 102 -113 148 -169 71 -85 177 -209 263 -307 12 -13
35 -38 52 -55 17 -17 109 -123 205 -236 95 -113 189 -221 209 -240 19 -19 58
-62 85 -94 28 -32 68 -77 90 -100 84 -88 171 -189 187 -219 9 -18 40 -56 70
-84 73 -71 102 -103 121 -135 10 -15 28 -30 42 -34 14 -3 25 -12 25 -20 0 -26
23 -64 40 -64 9 0 25 -19 38 -45 12 -24 32 -51 44 -59 13 -8 41 -38 62 -66 21
-28 52 -58 67 -66 16 -8 29 -19 29 -25 0 -14 31 -54 103 -131 32 -35 65 -78
72 -95 11 -25 20 -33 40 -33 17 0 28 -7 34 -23 5 -13 20 -36 33 -51 23 -29 98
-116 146 -172 59 -68 148 -168 169 -189 12 -12 27 -34 32 -48 7 -17 18 -27 31
-27 14 0 26 -11 35 -34 8 -18 27 -41 42 -51 35 -23 50 -43 57 -76 4 -20 13
-28 35 -32 18 -4 31 -13 31 -21 0 -15 272 -342 334 -401 64 -62 125 -138 128
-159 2 -14 11 -22 28 -24 15 -2 32 -14 41 -30 28 -49 135 -175 294 -347 98
-107 158 -180 162 -198 3 -15 15 -33 27 -39 21 -11 70 -56 227 -210 98 -95
131 -121 169 -133 14 -4 27 -10 30 -14 3 -3 34 -21 70 -38 l66 -33 267 0 c147
0 267 4 267 8 0 5 17 14 38 20 38 12 151 80 211 129 62 50 311 306 311 320 0
7 5 13 10 13 6 0 10 7 10 15 0 8 4 15 8 15 19 0 133 123 241 260 54 69 89 109
132 155 26 28 50 60 54 73 4 14 21 29 45 38 28 11 45 27 60 57 12 22 53 72 90
111 85 87 93 95 160 176 30 35 61 71 68 78 6 7 12 19 12 26 0 6 20 31 44 55
25 24 47 54 50 66 3 13 16 25 31 29 14 4 25 10 25 15 0 4 15 24 33 44 216 234
257 282 257 298 0 5 11 11 25 15 27 7 65 48 65 70 0 7 20 35 45 61 24 26 45
54 45 61 0 6 11 12 24 12 18 0 26 7 31 28 7 27 81 118 181 220 28 30 71 80 95
112 28 37 53 60 70 64 17 3 31 16 39 37 8 18 27 46 44 63 17 17 36 43 43 57 7
17 22 28 42 32 19 4 31 13 31 22 0 15 31 58 89 123 12 15 30 41 38 57 9 17 30
44 47 61 17 16 72 75 121 129 50 54 106 116 125 136 75 81 91 99 203 234 64
77 127 153 141 168 14 16 26 31 26 33 0 3 15 20 33 37 17 18 61 66 97 107 36
41 85 97 111 125 25 27 87 100 138 160 52 61 106 121 121 135 14 14 37 42 51
62 13 21 36 42 50 47 14 5 33 24 42 43 8 18 49 69 90 113 41 44 77 90 81 103
4 13 15 22 27 22 10 0 19 4 19 8 0 8 117 151 165 202 34 36 77 86 132 154 114
140 207 245 328 371 115 120 165 175 181 201 11 16 27 38 36 48 10 11 18 23
18 27 0 4 29 38 64 74 36 37 70 80 76 96 9 21 19 29 36 29 17 0 28 8 36 28 6
15 38 53 70 84 32 31 58 61 58 66 0 15 118 132 133 132 8 0 17 8 20 18 14 42
58 104 110 158 31 31 61 70 68 86 8 20 19 28 35 28 18 0 24 6 24 21 0 11 24
46 53 77 92 99 144 166 151 197 4 17 14 37 21 45 7 8 15 20 16 25 1 6 13 27
25 47 21 33 24 50 24 139 0 92 -2 101 -20 106 -11 3 -20 11 -20 18 0 25 -45
84 -73 96 -15 6 -37 23 -47 37 -24 29 -106 52 -192 52 -44 0 -59 4 -67 18 -8
15 -32 18 -188 23 -98 3 -785 6 -1528 7 -1266 2 -1620 6 -1722 18 l-43 5 0
1590 c0 874 -4 1589 -8 1589 -5 0 -12 813 -15 1808 -6 1630 -8 1812 -23 1862
-9 30 -19 57 -23 60 -4 3 -17 30 -30 60 -13 30 -36 76 -52 103 -16 26 -29 50
-29 53 0 4 -14 22 -30 41 -17 19 -28 38 -25 42 6 11 -99 117 -135 136 -15 8
-54 39 -87 70 -37 35 -78 62 -113 76 -30 11 -57 24 -60 29 -9 15 -142 50 -214
57 -39 3 -74 11 -78 17 -11 17 -1240 15 -1260 -2 -13 -10 -17 -10 -20 0 -4 10
-152 13 -763 13 -611 0 -759 -3 -763 -13 -3 -10 -7 -10 -18 -1 -15 12 -380 23
-434 13z"/>
</g>
</svg>
